<?xml version="1.0" encoding="UTF-8"?>
<svg xmlns="http://www.w3.org/2000/svg" width="112" height="38" viewBox="0 0 112 38" fill="none">
  <path fill-rule="evenodd" clip-rule="evenodd" d="M30.4962 38H1.44084C0.645274 38 0 37.344 0 36.5353V7.65248C0 6.84372 0.645274 6.18774 1.44084 6.18774H30.4962C31.2917 6.18774 31.937 6.84372 31.937 7.65248V36.5353C31.937 37.344 31.2917 38 30.4962 38Z" fill="#090204"></path>
  <path d="M2.12044 7.82184H29.5846C29.9767 7.82184 30.292 8.1573 30.292 8.57081V35.778C30.292 36.1915 29.9767 36.5269 29.5846 36.5269H2.12044C1.73001 36.5269 1.41309 36.1915 1.41309 35.778V8.57247C1.41146 8.1573 1.72838 7.82184 2.12044 7.82184Z" fill="#57B5D2"></path>
  <path d="M15.8705 34.4262C13.8726 34.4262 11.9091 33.8117 10.1905 32.6492C8.60427 31.7674 3.57439 28.1172 3.6234 17.4422L3.63157 15.5407L4.67381 17.1184L5.09528 17.7561C5.81897 14.1823 7.86098 9.24671 13.3074 4.69143L14.2533 3.90094L13.9609 2.67369L13.626 1.26874L14.8267 2.04428C15.0897 2.21367 20.9266 6.03161 24.4045 12.5997L24.4502 12.4419L24.9354 10.7729L25.5382 12.402C27.5574 17.8591 27.2404 22.142 26.685 24.6513L27.1718 24.5102L28.4526 24.1398L27.8383 25.3405C24.6397 31.5997 20.7387 33.3733 19.1933 33.8482C18.2017 34.2036 17.1676 34.3963 16.1189 34.4228C16.0388 34.4245 15.9539 34.4262 15.8705 34.4262ZM14.3725 4.69309L14.4673 4.79605L14.4068 4.54363L14.3725 4.69309Z" fill="#E9E8E8"></path>
  <path d="M14.5228 2.53588C14.5228 2.53588 21.2386 6.86863 24.545 14.1873L25.0057 12.608C27.2339 18.6297 26.5739 23.1418 25.8813 25.4933L27.3336 25.0748C24.2346 31.1397 20.5149 32.8402 19.0202 33.2953C18.0988 33.6257 17.1235 33.8151 16.1107 33.8416C16.0307 33.8433 15.9522 33.8449 15.8722 33.8449C13.9135 33.8449 12.0724 33.2272 10.4895 32.151C9.13357 31.4054 4.15107 27.9462 4.20008 17.4456L5.40405 19.2674C5.43999 19.0515 5.47919 18.8373 5.52493 18.6247C6.07709 15.187 7.92143 9.95586 13.6766 5.14317L12.85 8.60904L14.4722 5.65134L15.5438 6.81715L14.5228 2.53588ZM12.7357 0L13.4038 2.81156L13.6113 3.68176L12.9431 4.23975C8.00475 8.3699 5.79938 12.8139 4.84372 16.3279L3.06472 13.6376L3.04675 17.4389C2.99611 28.3879 8.20731 32.2075 9.89156 33.1508C11.7 34.3681 13.7665 35.0108 15.8706 35.0108C15.9588 35.0108 16.0486 35.0091 16.1368 35.0074C17.2412 34.9792 18.3308 34.7766 19.3746 34.4046C20.2862 34.1239 21.6993 33.5128 23.2969 32.1942C25.236 30.5966 26.9366 28.3813 28.3513 25.6112L29.5798 23.2099L27.4365 23.8276C27.6178 22.7349 27.7011 21.5923 27.6864 20.4116C27.6538 17.7528 27.113 14.9878 26.0806 12.1961L24.875 8.93785L24.2363 11.13C22.5912 8.39813 20.6113 6.2276 19.0806 4.76619C16.934 2.71523 15.2106 1.59593 15.1371 1.54943L12.7357 0Z" fill="#070001"></path>
  <path d="M8.63855 17.1035C8.63855 17.1035 9.1172 14.3285 10.8423 12.7708C10.8423 12.7708 10.9387 15.011 11.2736 15.9842C11.2736 15.9842 10.4584 15.0592 10.3636 14.5726C10.3636 14.5709 9.45372 15.2037 8.63855 17.1035Z" fill="#070001"></path>
  <path d="M23.3492 17.1035C23.3492 17.1035 22.8706 14.3285 21.1455 12.7708C21.1455 12.7708 21.0491 15.011 20.7142 15.9842C20.7142 15.9842 21.5278 15.0592 21.6241 14.5726C21.6241 14.5709 22.5341 15.2037 23.3492 17.1035Z" fill="#070001"></path>
  <path d="M14.7695 11.9902C14.7695 11.9902 15.5831 9.79974 15.4883 9.02087C15.4883 9.02087 16.7821 10.0439 17.4045 11.942C17.4045 11.942 16.542 10.919 15.967 10.5304C15.967 10.5304 15.2482 11.6498 14.7695 11.9902Z" fill="#070001"></path>
  <path d="M15.1829 19.651C15.1829 19.651 14.9296 16.8444 16.1924 14.8815C16.1924 14.8815 16.8622 17.0171 17.4372 17.8674C17.4372 17.8674 16.413 17.1915 16.1941 16.7464C16.1941 16.7481 15.4802 17.6 15.1829 19.651Z" fill="#070001"></path>
  <path d="M15.2286 23.5719C15.9164 26.508 14.7712 29.2996 12.6704 29.8095C10.5696 30.3176 8.30867 28.3514 7.62092 25.4153C6.93317 22.4792 8.07833 19.6875 10.1775 19.1777C12.28 18.6695 14.5409 20.6358 15.2286 23.5719Z" fill="#C5C6C6"></path>
  <path d="M14.9215 24.4571C15.4344 26.6475 14.3661 28.7815 12.5348 29.2266C10.7035 29.67 8.80363 28.2551 8.28905 26.0646C7.7761 23.8742 8.84447 21.7385 10.6757 21.2951C12.507 20.8517 14.4069 22.2666 14.9215 24.4571Z" fill="#0A0406"></path>
  <path d="M13.3581 26.0463C13.4071 26.5794 13.0232 27.0544 12.4988 27.1042C11.9744 27.154 11.5088 26.7638 11.4582 26.229C11.4092 25.6959 11.7947 25.2226 12.3175 25.1712C12.8435 25.1213 13.3091 25.5116 13.3581 26.0463Z" fill="#57B5D2"></path>
  <path d="M17.0909 23.5719C16.4031 26.508 17.5483 29.2996 19.6475 29.8095C21.7483 30.3176 24.0092 28.3514 24.697 25.4153C25.3847 22.4792 24.2395 19.6875 22.1404 19.1777C20.0395 18.6695 17.7786 20.6358 17.0909 23.5719Z" fill="#C5C6C6"></path>
  <path d="M17.3979 24.4571C16.885 26.6475 17.9534 28.7815 19.7846 29.2266C21.6159 29.67 23.5158 28.2551 24.0304 26.0646C24.5433 23.8742 23.4749 21.7385 21.6453 21.2951C19.8124 20.8517 17.9125 22.2666 17.3979 24.4571Z" fill="#0A0406"></path>
  <path d="M18.9614 26.0463C18.9124 26.5794 19.2963 27.0544 19.8223 27.1042C20.3467 27.154 20.8122 26.7638 20.8629 26.229C20.9135 25.6959 20.528 25.2226 20.002 25.1712C19.476 25.1213 19.0104 25.5116 18.9614 26.0463Z" fill="#57B5D2"></path>
  <path d="M4.19678 17.4439C4.19678 17.4439 5.65395 19.8984 6.60798 20.7022C6.60798 20.7022 5.3305 18.457 4.9466 17.3443L4.19678 17.4439Z" fill="#0A0406"></path>
  <path d="M41.8922 32.1776C39.61 32.1776 38.4681 31.0085 38.4681 28.6702V15.8032C38.4681 13.3603 39.61 12.138 41.8922 12.138H50.2693V15.5922H42.4884C41.866 15.5922 41.554 15.9094 41.554 16.5422V27.9063C41.554 28.4693 41.866 28.7499 42.4884 28.7499H50.3216V32.1776H41.8922Z" fill="#090406"></path>
  <path d="M55.639 32.1776C53.3569 32.1776 52.215 31.0085 52.215 28.6702V15.8032C52.215 13.3603 53.3569 12.138 55.639 12.138H62.5377C64.8199 12.138 65.9618 13.3603 65.9618 15.8032V28.6702C65.9618 31.0085 64.8199 32.1776 62.5377 32.1776H55.639ZM62.902 16.5422C62.902 15.9094 62.59 15.5922 61.9676 15.5922H56.2353C55.6129 15.5922 55.3008 15.9094 55.3008 16.5422V27.9063C55.3008 28.4693 55.6129 28.7499 56.2353 28.7499H61.9676C62.59 28.7499 62.902 28.4693 62.902 27.9063V16.5422Z" fill="#090406"></path>
  <path d="M71.8492 32.1776C69.5671 32.1776 68.4252 31.0085 68.4252 28.6702V15.8032C68.4252 13.3603 69.5671 12.138 71.8492 12.138H80.2263V15.5922H72.4455C71.8231 15.5922 71.5111 15.9094 71.5111 16.5422V27.9063C71.5111 28.4693 71.8231 28.7499 72.4455 28.7499H80.2786V32.1776H71.8492Z" fill="#090406"></path>
  <path d="M85.596 32.1776C83.3139 32.1776 82.172 31.0085 82.172 28.6702V15.8032C82.172 13.3603 83.3139 12.138 85.596 12.138H92.4948C94.7769 12.138 95.9188 13.3603 95.9188 15.8032V28.6702C95.9188 31.0085 94.7769 32.1776 92.4948 32.1776H85.596ZM92.859 16.5422C92.859 15.9094 92.547 15.5922 91.9246 15.5922H86.1923C85.5699 15.5922 85.2579 15.9094 85.2579 16.5422V27.9063C85.2579 28.4693 85.5699 28.7499 86.1923 28.7499H91.9246C92.547 28.7499 92.859 28.4693 92.859 27.9063V16.5422Z" fill="#090406"></path>
  <path d="M98.3839 32.1776V28.7499H108.032C108.636 28.7499 108.94 28.4244 108.94 27.7751V24.6115C108.94 23.9256 108.654 23.5835 108.084 23.5835H101.782C99.4997 23.5835 98.3578 22.4409 98.3578 20.1558V15.8563C98.3578 13.3785 99.4556 12.138 101.651 12.138H111.559V15.5922H102.247C101.712 15.5922 101.444 15.9094 101.444 16.5422V19.6792C101.444 20.3468 101.738 20.6806 102.326 20.6806H108.681C110.894 20.6806 112 21.8232 112 24.1083V28.4327C112 30.9288 110.842 32.1776 108.524 32.1776H98.3839Z" fill="#090406"></path>
</svg>
